<?xml version="1.0" encoding="utf-8"?>
<!-- Generator: Adobe Illustrator 23.0.2, SVG Export Plug-In . SVG Version: 6.00 Build 0)  -->
<svg version="1.1" id="Layer_1" xmlns="http://www.w3.org/2000/svg" xmlns:xlink="http://www.w3.org/1999/xlink" x="0px" y="0px"
	 viewBox="0 0 357 202" style="enable-background:new 0 0 357 202;" xml:space="preserve">
<style type="text/css">
	.st0{fill:#547069;}
	.st1{clip-path:url(#SVGID_2_);fill:#F5E8E0;}
	.st2{clip-path:url(#SVGID_4_);fill:#F5E8E0;}
	.st3{clip-path:url(#SVGID_6_);fill:#F5E8E0;}
	.st4{fill:#1D1D1B;}
	.st5{fill:#B50000;}
</style>
<g>
	<path class="st0" d="M194.57,52.61c2.52,0,4.37-1.9,4.37-4.45c0-2.52-1.84-4.43-4.37-4.43h-2.21v8.87H194.57z M189.85,41.76
		c0-0.19,0.16-0.37,0.35-0.37h4.6c3.75,0,6.81,3.05,6.81,6.77c0,3.77-3.07,6.81-6.81,6.81h-4.6c-0.19,0-0.35-0.17-0.35-0.37V41.76z"
		/>
	<path class="st0" d="M220.38,50.34l-1.94-4.27h-0.06l-1.9,4.27H220.38z M211.99,54.48l6.04-13.06c0.06-0.12,0.16-0.21,0.33-0.21
		h0.2c0.19,0,0.27,0.1,0.33,0.21l5.98,13.06c0.12,0.25-0.04,0.51-0.33,0.51h-1.69c-0.29,0-0.43-0.12-0.56-0.39l-0.95-2.1h-5.81
		l-0.95,2.1c-0.08,0.19-0.25,0.39-0.56,0.39h-1.69C212.03,54.98,211.88,54.73,211.99,54.48"/>
	<path class="st0" d="M241.11,47.68c1.09,0,2-0.87,2-2.02c0-1.07-0.91-1.88-2-1.88h-2.25v3.9H241.11z M236.33,41.76
		c0-0.19,0.16-0.37,0.37-0.37h4.56c2.39,0,4.35,1.94,4.35,4.29c0,2.41-1.96,4.37-4.33,4.37h-2.43v4.56c0,0.19-0.17,0.37-0.37,0.37
		h-1.79c-0.21,0-0.37-0.17-0.37-0.37V41.76z"/>
	<path class="st0" d="M257.52,41.76c0-0.19,0.17-0.37,0.37-0.37h1.81c0.21,0,0.37,0.18,0.37,0.37v5.15h6.33v-5.15
		c0-0.19,0.15-0.37,0.37-0.37h1.79c0.19,0,0.37,0.18,0.37,0.37v12.85c0,0.19-0.17,0.37-0.37,0.37h-1.79c-0.21,0-0.37-0.17-0.37-0.37
		v-5.36h-6.33v5.36c0,0.19-0.15,0.37-0.37,0.37h-1.81c-0.19,0-0.37-0.17-0.37-0.37V41.76z"/>
	<path class="st0" d="M282.15,41.55c0-0.19,0.17-0.35,0.37-0.35h0.48l8.08,8.58h0.02v-8.02c0-0.19,0.16-0.37,0.37-0.37h1.79
		c0.2,0,0.37,0.18,0.37,0.37v13.06c0,0.19-0.17,0.35-0.37,0.35h-0.47l-8.11-8.91h-0.02v8.35c0,0.19-0.16,0.37-0.37,0.37h-1.77
		c-0.19,0-0.37-0.18-0.37-0.37V41.55z"/>
	<path class="st0" d="M306.86,41.76c0-0.19,0.16-0.37,0.37-0.37h7.9c0.21,0,0.37,0.18,0.37,0.37v1.59c0,0.19-0.16,0.37-0.37,0.37
		h-5.75v3.18h4.79c0.19,0,0.37,0.17,0.37,0.37v1.61c0,0.21-0.18,0.37-0.37,0.37h-4.79v3.4h5.75c0.21,0,0.37,0.17,0.37,0.37v1.59
		c0,0.19-0.16,0.37-0.37,0.37h-7.9c-0.21,0-0.37-0.17-0.37-0.37V41.76z"/>
	<path class="st0" d="M194.7,76.22c1.96,0,3.38,0.62,4.7,1.81c0.17,0.16,0.17,0.39,0.02,0.54l-1.18,1.22
		c-0.14,0.16-0.33,0.16-0.49,0c-0.82-0.72-1.9-1.15-2.99-1.15c-2.48,0-4.33,2.08-4.33,4.52c0,2.43,1.86,4.48,4.35,4.48
		c1.16,0,2.15-0.45,2.97-1.11c0.15-0.14,0.37-0.12,0.49,0l1.2,1.24c0.15,0.14,0.12,0.39-0.02,0.52c-1.32,1.28-2.99,1.88-4.72,1.88
		c-3.88,0-7.01-3.09-7.01-6.97S190.82,76.22,194.7,76.22"/>
	<path class="st0" d="M218.28,85.37l-1.94-4.27h-0.06l-1.9,4.27H218.28z M209.9,89.5l6.04-13.06c0.06-0.12,0.16-0.21,0.33-0.21h0.2
		c0.19,0,0.27,0.1,0.33,0.21l5.98,13.06c0.12,0.25-0.04,0.51-0.33,0.51h-1.69c-0.29,0-0.43-0.12-0.56-0.39l-0.95-2.1h-5.81
		l-0.95,2.1c-0.08,0.19-0.25,0.39-0.56,0.39h-1.69C209.94,90.01,209.78,89.75,209.9,89.5"/>
	<path class="st0" d="M239.94,82.61c1.03,0,1.92-0.89,1.92-1.98c0-1.03-0.89-1.88-1.92-1.88h-3.16v3.86H239.94z M234.23,76.79
		c0-0.19,0.16-0.37,0.37-0.37h5.55c2.33,0,4.23,1.86,4.23,4.17c0,1.79-1.18,3.24-2.87,3.92l2.66,4.93c0.14,0.25,0,0.56-0.33,0.56
		h-2.04c-0.18,0-0.27-0.1-0.31-0.17l-2.58-5.14h-2.15v4.95c0,0.19-0.17,0.37-0.37,0.37h-1.79c-0.21,0-0.37-0.17-0.37-0.37V76.79z"/>
	<path class="st0" d="M256.67,76.79c0-0.19,0.17-0.37,0.37-0.37h1.84c0.21,0,0.37,0.18,0.37,0.37v7.94c0,1.65,1.13,2.95,2.82,2.95
		c1.69,0,2.83-1.3,2.83-2.93v-7.96c0-0.19,0.16-0.37,0.37-0.37h1.84c0.19,0,0.37,0.18,0.37,0.37v8.08c0,2.95-2.35,5.34-5.42,5.34
		c-3.05,0-5.4-2.39-5.4-5.34V76.79z"/>
	<path class="st0" d="M286.95,85.37l-1.94-4.27h-0.06l-1.9,4.27H286.95z M278.56,89.5l6.04-13.06c0.06-0.12,0.15-0.21,0.33-0.21h0.2
		c0.19,0,0.27,0.1,0.33,0.21l5.98,13.06c0.12,0.25-0.04,0.51-0.33,0.51h-1.69c-0.29,0-0.43-0.12-0.56-0.39l-0.95-2.1h-5.8l-0.95,2.1
		c-0.08,0.19-0.25,0.39-0.56,0.39h-1.69C278.6,90.01,278.45,89.75,278.56,89.5"/>
	<path class="st0" d="M302.9,76.57c0-0.19,0.17-0.35,0.37-0.35h0.48l8.08,8.58h0.02v-8.02c0-0.19,0.16-0.37,0.37-0.37H314
		c0.2,0,0.37,0.18,0.37,0.37v13.07c0,0.19-0.17,0.35-0.37,0.35h-0.47l-8.11-8.91h-0.02v8.35c0,0.19-0.16,0.37-0.37,0.37h-1.77
		c-0.19,0-0.37-0.18-0.37-0.37V76.57z"/>
	<path class="st0" d="M334.23,85.37l-1.94-4.27h-0.06l-1.9,4.27H334.23z M325.84,89.5l6.04-13.06c0.06-0.12,0.15-0.21,0.33-0.21h0.2
		c0.19,0,0.27,0.1,0.33,0.21l5.98,13.06c0.12,0.25-0.04,0.51-0.33,0.51h-1.69c-0.29,0-0.43-0.12-0.56-0.39l-0.95-2.1h-5.8l-0.95,2.1
		c-0.08,0.19-0.25,0.39-0.56,0.39h-1.69C325.88,90.01,325.72,89.75,325.84,89.5"/>
	<path class="st0" d="M193.91,111.25c1.75,0,3.42,0.68,4.74,1.81c0.15,0.16,0.17,0.39,0.02,0.54l-1.2,1.26
		c-0.16,0.16-0.33,0.16-0.51,0c-0.83-0.74-1.86-1.12-2.93-1.12c-2.43,0-4.35,2.08-4.35,4.5c0,2.41,1.92,4.45,4.37,4.45
		c1.09,0,1.92-0.33,2.31-0.49v-1.65h-1.55c-0.21,0-0.37-0.15-0.37-0.35v-1.53c0-0.21,0.16-0.37,0.37-0.37h3.73
		c0.19,0,0.35,0.18,0.35,0.37v4.97c0,0.15-0.08,0.25-0.15,0.31c0,0-2,1.26-4.81,1.26c-3.86,0-6.97-3.07-6.97-6.95
		C186.94,114.38,190.04,111.25,193.91,111.25"/>
	<path class="st0" d="M218.05,120.39l-1.94-4.27h-0.06l-1.9,4.27H218.05z M209.66,124.53l6.04-13.06c0.06-0.12,0.15-0.21,0.33-0.21
		h0.2c0.19,0,0.27,0.1,0.33,0.21l5.98,13.06c0.12,0.25-0.04,0.5-0.33,0.5h-1.69c-0.29,0-0.43-0.12-0.56-0.39l-0.95-2.1h-5.81
		l-0.95,2.1c-0.08,0.19-0.25,0.39-0.56,0.39h-1.69C209.7,125.03,209.55,124.78,209.66,124.53"/>
	<path class="st0" d="M234,111.81c0-0.19,0.16-0.37,0.37-0.37h1.79c0.19,0,0.37,0.18,0.37,0.37v10.89h4.95
		c0.21,0,0.37,0.17,0.37,0.37v1.59c0,0.19-0.15,0.37-0.37,0.37h-7.11c-0.21,0-0.37-0.17-0.37-0.37V111.81z"/>
	<path class="st0" d="M253.51,111.81c0-0.19,0.17-0.37,0.37-0.37h1.81c0.19,0,0.37,0.18,0.37,0.37v12.85c0,0.19-0.17,0.37-0.37,0.37
		h-1.81c-0.19,0-0.37-0.17-0.37-0.37V111.81z"/>
	<path class="st0" d="M268,124.32l5.78-10.44v-0.08h-4.85c-0.19,0-0.37-0.17-0.37-0.37v-1.61c0-0.19,0.17-0.37,0.37-0.37h8.11
		c0.19,0,0.37,0.18,0.37,0.37v0.25l-5.71,10.58v0.04h4.95c0.21,0,0.37,0.17,0.37,0.37v1.61c0,0.19-0.15,0.37-0.37,0.37h-8.29
		c-0.19,0-0.37-0.18-0.37-0.37V124.32z"/>
	<path class="st0" d="M289.43,111.81c0-0.19,0.17-0.37,0.37-0.37h1.8c0.19,0,0.37,0.18,0.37,0.37v12.85c0,0.19-0.18,0.37-0.37,0.37
		h-1.8c-0.19,0-0.37-0.17-0.37-0.37V111.81z"/>
	<path class="st0" d="M311.83,120.39l-1.94-4.27h-0.06l-1.9,4.27H311.83z M303.44,124.53l6.04-13.06c0.06-0.12,0.16-0.21,0.33-0.21
		h0.2c0.19,0,0.27,0.1,0.33,0.21l5.98,13.06c0.12,0.25-0.04,0.5-0.33,0.5h-1.69c-0.29,0-0.43-0.12-0.56-0.39l-0.95-2.1h-5.8
		l-0.95,2.1c-0.08,0.19-0.25,0.39-0.56,0.39h-1.69C303.48,125.03,303.33,124.78,303.44,124.53"/>
	<path class="st0" d="M187.89,144.33c0-0.12,0.09-0.23,0.23-0.23h4.7c0.13,0,0.23,0.11,0.23,0.23v0.35c0,0.12-0.1,0.23-0.23,0.23
		h-4.01v3.27h3.42c0.12,0,0.23,0.11,0.23,0.23v0.35c0,0.12-0.11,0.23-0.23,0.23h-3.42v3.26c0,0.12-0.11,0.23-0.23,0.23h-0.46
		c-0.13,0-0.23-0.11-0.23-0.23V144.33z"/>
	<path class="st0" d="M204.07,151.73c1.9,0,3.46-1.55,3.46-3.45c0-1.9-1.56-3.47-3.46-3.47c-1.9,0-3.45,1.57-3.45,3.47
		C200.62,150.18,202.17,151.73,204.07,151.73 M204.07,143.98c2.39,0,4.29,1.92,4.29,4.31c0,2.38-1.91,4.28-4.29,4.28
		c-2.39,0-4.28-1.9-4.28-4.28C199.78,145.9,201.68,143.98,204.07,143.98"/>
	<path class="st0" d="M215.8,144.33c0-0.12,0.11-0.23,0.23-0.23h0.45c0.13,0,0.23,0.11,0.23,0.23v4.97c0,1.36,0.85,2.42,2.24,2.42
		c1.41,0,2.27-1.04,2.27-2.4v-5c0-0.12,0.1-0.23,0.23-0.23h0.45c0.12,0,0.23,0.11,0.23,0.23v5.04c0,1.81-1.29,3.2-3.17,3.2
		c-1.87,0-3.15-1.38-3.15-3.2V144.33z"/>
	<path class="st0" d="M230.16,144.19c0-0.12,0.11-0.21,0.23-0.21h0.3l5.38,6.7h0.02v-6.36c0-0.12,0.1-0.23,0.23-0.23h0.42
		c0.12,0,0.23,0.11,0.23,0.23v8.03c0,0.12-0.11,0.22-0.23,0.22h-0.22l-5.47-6.84h-0.01v6.49c0,0.12-0.1,0.23-0.23,0.23h-0.42
		c-0.12,0-0.23-0.11-0.23-0.23V144.19z"/>
	<path class="st0" d="M247.81,151.63c1.96,0,3.38-1.4,3.38-3.36c0-1.96-1.42-3.35-3.38-3.35h-1.79v6.72H247.81z M245.11,144.33
		c0-0.12,0.09-0.23,0.21-0.23H248c2.3,0,4.19,1.87,4.19,4.16c0,2.31-1.88,4.19-4.19,4.19h-2.67c-0.12,0-0.21-0.11-0.21-0.23V144.33z
		"/>
	<path class="st0" d="M264.21,149.61c-0.58-1.3-1.16-2.61-1.74-3.91h-0.1l-1.74,3.91H264.21z M258.55,152.14l3.63-8.03
		c0.04-0.07,0.1-0.13,0.2-0.13h0.12c0.11,0,0.17,0.06,0.2,0.13l3.6,8.03c0.07,0.15-0.02,0.31-0.2,0.31h-0.48
		c-0.11,0-0.18-0.07-0.2-0.13l-0.88-1.97h-4.24l-0.87,1.97c-0.02,0.06-0.1,0.13-0.2,0.13h-0.48
		C258.57,152.45,258.47,152.29,258.55,152.14"/>
	<path class="st0" d="M274.03,144.9h-2.08c-0.13,0-0.23-0.11-0.23-0.23v-0.35c0-0.12,0.1-0.23,0.23-0.23h5.06
		c0.13,0,0.23,0.11,0.23,0.23v0.35c0,0.12-0.1,0.23-0.23,0.23h-2.08v7.32c0,0.12-0.11,0.23-0.23,0.23h-0.45
		c-0.12,0-0.23-0.11-0.23-0.23V144.9z"/>
	<path class="st0" d="M284.27,144.33c0-0.12,0.11-0.23,0.23-0.23h0.48c0.12,0,0.23,0.11,0.23,0.23v7.9c0,0.12-0.11,0.23-0.23,0.23
		h-0.48c-0.12,0-0.23-0.11-0.23-0.23V144.33z"/>
	<path class="st0" d="M297.03,151.73c1.9,0,3.46-1.55,3.46-3.45c0-1.9-1.56-3.47-3.46-3.47c-1.9,0-3.45,1.57-3.45,3.47
		C293.58,150.18,295.13,151.73,297.03,151.73 M297.03,143.98c2.39,0,4.29,1.92,4.29,4.31c0,2.38-1.91,4.28-4.29,4.28
		c-2.39,0-4.28-1.9-4.28-4.28C292.75,145.9,294.65,143.98,297.03,143.98"/>
	<path class="st0" d="M308.87,144.19c0-0.12,0.11-0.21,0.23-0.21h0.3l5.38,6.7h0.02v-6.36c0-0.12,0.1-0.23,0.23-0.23h0.42
		c0.12,0,0.23,0.11,0.23,0.23v8.03c0,0.12-0.11,0.22-0.23,0.22h-0.22l-5.47-6.84h-0.01v6.49c0,0.12-0.1,0.23-0.23,0.23h-0.42
		c-0.12,0-0.23-0.11-0.23-0.23V144.19z"/>
	<path class="st0" d="M161.71,153.46c-0.28-1.7-0.41-3.42-0.49-5.14c-0.12-2.58-0.88-5.04-1.74-7.45c-1.57-4.37-3.29-8.7-5.06-13.01
		c-1.61-3.92-3.09-7.88-4.03-11.96c-0.99-4.32-1.58-8.72-2.34-13.08c-0.13-0.77-0.21-1.55-0.34-2.32c-0.55-3.11-1.14-6.21-1.65-9.32
		c-0.74-4.55-1.6-9.07-3-13.51c-1.25-3.99-2.37-8.02-3.38-12.06c-0.77-3.12-1.51-6.23-2.85-9.2c-1.08-2.4-2.05-4.84-3.28-7.17
		c-1.87-3.54-4.23-6.83-6.84-10c-2.26-2.74-4.26-5.64-6.45-8.42c-1.37-1.73-2.93-2.85-4.84-3.81c-3.36-1.97-10.66-4.57-14.53-5.1
		c-1.89-0.36-3.81-0.64-5.73-0.76c-1.92-0.11-3.86-0.12-5.78,0.02c-3.84,0.29-7.65,1.06-11.3,2.29c-1.83,0.61-3.61,1.34-5.35,2.17
		c-1.75,0.84-3.42,1.74-5.06,2.86l0,0c-0.3,0.21-0.38,0.62-0.17,0.91c0.21,0.3,0.61,0.38,0.91,0.17l0.03-0.02
		c1.5-1.03,3.17-1.95,4.85-2.75c1.69-0.81,3.43-1.52,5.2-2.12c3.55-1.22,7.25-1.97,10.98-2.27c1.87-0.15,3.74-0.14,5.61-0.04
		c1.87,0.11,3.73,0.37,5.57,0.72c2.41,0.5,4.77,1.21,7.07,2.11c1.3,0.65,2.61,1.3,3.92,1.93c1.86,0.89,3.54,1.93,4.86,3.42
		c1.73,1.96,3.3,3.99,4.79,6.1c1.96,2.78,4.26,5.38,6.23,8.15c2.76,3.9,4.99,8.05,6.55,12.44c0.88,2.48,1.7,4.98,2.42,7.51
		c0.94,3.3,1.73,6.64,2.65,9.95c0.75,2.7,1.82,5.35,2.36,8.08c1.28,6.39,2.53,12.79,3.42,19.24c0.89,6.41,1.93,12.78,3.87,19
		c0.78,2.51,1.77,4.97,2.71,7.43c1.48,3.9,3.07,7.78,4.48,11.7c0.82,2.31,1.55,4.66,1.99,7.05c0.45,2.41,0.48,4.9,0.74,7.34
		c0.1,0.95-0.11,1.82-0.59,2.68c-1.09,1.95-2.82,3.46-4.64,4.89c-3.5,2.75-7.51,4.91-11.44,7.15c-2.44,1.39-5.13,2.47-7.68,3.71
		c-0.51,0.25-0.93,0.62-1.39,0.93c0.03,0.1,0.05,0.19,0.08,0.29c0.46,0.04,0.94,0.18,1.37,0.1c1.26-0.22,2.54-0.43,3.75-0.8
		c3.67-1.11,6.93-2.88,10.12-4.8c3.68-2.21,7.37-4.38,10.28-7.38C160.82,159.02,162.22,156.53,161.71,153.46"/>
	<path class="st0" d="M130.04,131.16h-0.17v-13.32c0.07,0.01,0.15,0.01,0.22,0.02C131.68,122.3,131.51,126.73,130.04,131.16
		 M126.98,132.9c-0.06,0.87-0.37,1.72-0.57,2.58c-0.29,1.24-1.12,2.03-2.19,2.65c-1.69,0.99-3.38,2.03-5.29,2.5
		c-1.79,0.44-3.64,0.65-5.46,0.95c-0.4,0.06-0.83-0.01-1.22,0.1c-1.22,0.32-2.29-0.06-3.36-0.56c-0.39-0.18-0.78-0.38-1.19-0.5
		c-1.01-0.3-1.83-0.86-2.47-1.68c-1.11-1.42-2.2-2.86-3.32-4.28c-0.35-0.44-0.27-0.73,0.14-1.08c5.19-4.25,8.74-9.68,11.21-15.83
		c1.12-2.8,1.95-5.73,2.89-8.6c0.14-0.43,0.36-0.62,0.8-0.49c0.6,0.18,1.22,0.3,1.78,0.55c2.27,1.04,4.52,2.11,6.77,3.18
		c0.63,0.3,0.94,0.78,1.01,1.51c0.18,1.9,0.55,3.8,0.66,5.7c0.12,1.89,0.03,3.79,0.03,5.68c0.04,0,0.08,0,0.11,0
		C127.22,127.83,127.15,130.37,126.98,132.9 M99.96,129.99c-0.44,0.38-0.76,0.43-0.96-0.15c-0.52-1.59-1.1-3.16-1.46-4.79
		c-0.16-0.72,0.06-1.59,0.28-2.33c0.53-1.72,0.94-3.54,1.81-5.08c1.89-3.38,4.78-5.69,8.52-6.85c0.94-0.29,1.88-0.61,2.82-0.91
		c0.17-0.06,0.36-0.07,0.74-0.14c-0.38,1.18-0.68,2.18-1.01,3.17c-1.34,3.92-3.06,7.65-5.41,11.07
		C103.77,126.2,102,128.21,99.96,129.99 M96.85,132.36c-2.16,1.43-4.45,2.6-6.88,3.49c-6.85,2.53-13.96,3.3-21.2,3.03
		c-3.22-0.12-6.37-0.73-9.19-2.44c-3.28-1.99-5.62-4.7-6.75-8.46c-1.11-3.69-1.97-7.43-2.61-11.23c-1.69-9.96-2.07-19.99-1.56-30.06
		c0.17-3.31,0.24-6.63,0.62-9.92c0.4-3.45,1.07-6.88,1.7-10.3c0.28-1.5,0.68-2.97,1.12-4.43c0.28-0.93,0.75-1.81,1.13-2.71
		c0.03-0.06,0.09-0.11,0.1-0.17c0.16-1.31,1.25-1.24,2.12-1.34c2.33-0.27,4.42,0.4,6.22,1.9c1.1,0.92,2.17,1.88,3.23,2.85
		c0.29,0.27,0.47,0.66,0.7,1c0.34,0.5,0.62,1.05,1.03,1.47c1.07,1.09,1.66,2.43,2.27,3.79c0.51,1.13,0.77,2.26,0.79,3.49
		c0,0.26,0.12,0.58,0.3,0.76c0.41,0.4,0.35,0.78,0.12,1.22c-0.24,0.48-0.44,0.98-0.66,1.47c-0.01,0.02-0.01,0.05-0.02,0.06
		c-0.87,0.87-0.81,2.14-1.36,3.16c-0.57,1.04-0.73,2.29-1.22,3.39c-1.03,2.31-1.92,4.69-3.36,6.81c-1.98,2.91-3.86,5.89-5.81,8.83
		c-0.61,0.92-0.65,1.88-0.2,2.82c0.73,1.52,1.65,2.92,3.05,3.93c0.33,0.24,0.59,0.57,0.91,0.82c0.61,0.48,1.26,0.47,1.69,0.01
		c0.43-0.46,0.38-1.1-0.19-1.66c-0.65-0.65-1.36-1.25-2-1.91c-0.33-0.33-0.59-0.74-0.85-1.14c-0.91-1.36-0.89-1.35,0.03-2.7
		c2.15-3.16,4.39-6.28,6.39-9.54c1.48-2.41,2.57-5.05,3.48-7.75c0.36-1.08,0.96-2.07,1.3-3.15c0.32-1.02,0.48-2.09,0.64-3.15
		c0.08-0.55-0.01-1.12,0.02-1.68c0.21-3.64-1.32-6.61-3.51-9.35c-0.76-0.95-1.31-2.1-2.16-2.95c-1.95-1.94-4-3.77-6.71-4.68
		c-0.93-0.31-1.81-0.49-2.77-0.43c-0.33,0.02-0.67-0.03-1-0.04c-0.03-0.07-0.06-0.13-0.09-0.2c0.64-0.83,1.27-1.67,1.92-2.49
		c1.57-1.97,3.06-4,4.74-5.87c1.69-1.88,3.52-3.65,5.38-5.38c1.54-1.43,3.18-2.76,4.83-4.07c0.41-0.32,1.01-0.49,1.55-0.56
		c2.96-0.43,5.92-0.38,8.88,0.03c0.41,0.06,5.03,0.56,6.88,1.14c1.78,0.56,3.48,1.35,5.21,2.06c1.12,0.45,2.24,0.89,3.33,1.4
		c0.85,0.41,1.67,0.9,2.45,1.42c0.32,0.21,0.65,0.55,0.78,0.91c1.08,2.78,2.1,5.59,3.17,8.38c0.7,1.82,1.48,3.61,2.21,5.43
		c0.54,1.36,1.07,2.72,1.58,4.09c0.52,1.39,1,2.79,1.5,4.19c0.09,0.26,0.19,0.52,0.32,0.86c-0.18,0-0.3,0.03-0.4,0
		c-0.67-0.23-1.32-0.55-2-0.71c-1.23-0.28-2.47-0.62-3.72-0.68c-2.3-0.1-4.61-0.11-6.91,0.01c-1.27,0.07-2.54,0.41-3.79,0.72
		c-1.48,0.36-2.96,0.75-4.4,1.25c-1.36,0.47-2.67,1.07-3.98,1.64c-0.93,0.4-1.87,0.78-2.74,1.3c-0.76,0.46-1.44,1.06-2.11,1.64
		c-0.65,0.56-1.26,1.17-1.87,1.78c-1.59,1.59-2.94,3.37-4.05,5.33c-0.21,0.37-0.38,0.77-0.51,1.18c-0.8,2.5-1.58,4.99-2.35,7.5
		c-0.1,0.32-0.14,0.68-0.11,1.02c0.02,0.23,0.22,0.44,0.33,0.66c0.21-0.12,0.5-0.2,0.61-0.38c0.39-0.64,0.86-1.28,1.06-1.99
		c0.68-2.41,1.8-4.6,3.15-6.69c0.34-0.52,0.63-1.08,0.88-1.65c1.05-2.36,3.01-3.82,5.12-5.1c1.1-0.67,2.24-1.28,3.41-1.82
		c1.4-0.65,2.85-1.2,4.29-1.77c1.4-0.56,2.81-1.08,4.21-1.63c2.02-0.79,4.16-0.84,6.27-1.03c1.18-0.11,2.37-0.1,3.55-0.08
		c2.59,0.06,4.93,0.91,6.99,2.47c0.29,0.22,0.49,0.6,0.64,0.94c0.8,1.81,1.5,3.66,2.36,5.44c0.7,1.45,1.58,2.81,2.33,4.23
		c0.2,0.37,0.36,0.85,0.3,1.25c-0.66,4.45-1.31,8.9-2.07,13.32c-0.63,3.64-1.41,7.26-2.12,10.88c-0.09,0.46-0.33,0.69-0.81,0.78
		c-2.1,0.36-4.06,1.01-5.84,2.27c-1.18,0.84-2.61,1.34-3.77,2.2c-2.61,1.93-4.77,4.27-5.76,7.48c-0.35,1.15-0.7,2.31-1.11,3.44
		c-0.75,2.09-0.44,4.12,0.29,6.12c0.42,1.15,0.89,2.28,1.39,3.39C97.34,131.96,97.16,132.15,96.85,132.36 M57.62,47.34
		c2.43-4.39,6.62-7.47,9.3-8.26c-3.99,3.38-7.46,7.23-10.59,11.43C56.48,49.33,57.07,48.34,57.62,47.34 M106.12,46.84
		c3.65,2.44,6.3,5.68,8.18,9.67c1.13,2.41,1.85,4.91,2.39,7.47c0.35,1.64,0.46,3.32,0.67,4.99c0.32,2.43,0.65,4.85,0.97,7.28
		c0.03,0.19,0.05,0.37,0.08,0.62c0.44,4.08-0.59,1.49-0.97,0.9c-0.42-0.72-0.88-1.41-1.23-2.16c-0.51-1.08-1.14-2.11-1.17-3.38
		c-0.01-0.49-0.42-0.97-0.63-1.46c-0.8-1.85-1.65-3.69-2.37-5.57c-0.92-2.41-1.69-4.87-2.6-7.29c-0.58-1.54-1.35-3.02-1.94-4.56
		c-0.83-2.14-1.58-4.31-2.36-6.48c-0.05-0.15-0.05-0.32-0.1-0.69C105.51,46.47,105.83,46.64,106.12,46.84 M119.51,92.52
		c0.22-1.31,0.42-2.62,0.62-3.92l0.21-0.01c0.24,0.88,0.48,1.76,0.72,2.65c1.11,4.11,2.23,8.22,3.34,12.33
		c0.49,1.8,0.96,3.61,1.42,5.42c0.06,0.22-0.05,0.48-0.08,0.72c-0.22-0.07-0.45-0.1-0.65-0.2c-2.5-1.25-5-2.5-7.75-3.15
		c-0.15-0.03-0.35-0.37-0.32-0.53c0.43-2.19,0.94-4.37,1.36-6.56C118.8,97.02,119.14,94.76,119.51,92.52 M133.33,120.43
		c-0.56-3.06-1.69-5.85-3.91-8.13c-0.31-0.32-0.54-0.8-0.61-1.23c-0.42-2.75-0.93-5.45-1.81-8.11c-0.97-2.96-1.72-5.99-2.53-9
		c-0.56-2.08-1.08-4.17-1.54-6.27c-0.38-1.72-0.72-3.46-0.98-5.2c-0.19-1.25-0.74-5.39-0.76-5.5c-0.29-1.76-0.63-3.52-0.85-5.29
		c-0.41-3.35-0.46-6.75-1.36-10.03c-0.42-1.51-0.72-3.08-1.33-4.51c-0.82-1.89-1.86-3.68-2.87-5.47c-1.08-1.93-2.55-3.6-4.26-4.97
		c-2.47-2-5.07-3.84-7.6-5.77c-0.45-0.35-0.86-0.78-1.2-1.24c-0.54-0.72-0.94-1.55-1.51-2.24c-1.71-2.08-3.46-4.11-5.58-5.8
		c-1.85-1.48-3.78-2.77-6.05-3.48c-0.53-0.17-1.01-0.08-1.25,0.48c-0.23,0.55,0.14,0.91,0.55,1.17c0.58,0.36,1.2,0.68,1.8,1.01
		c3.15,1.72,5.72,4.1,7.94,6.89c0.08,0.1,0.1,0.25,0.21,0.54c-0.4-0.17-0.66-0.24-0.89-0.38c-1.79-1.04-13.48-5.53-18.1-5.47
		c-0.04-0.08-0.07-0.16-0.11-0.23c0.78-0.42,1.58-0.82,2.35-1.26c0.46-0.26,0.93-0.54,1.3-0.91c0.16-0.17,0.16-0.63,0.05-0.88
		c-0.07-0.18-0.46-0.31-0.7-0.3c-0.47,0.01-0.94,0.1-1.4,0.2c-1.94,0.42-3.35,1.69-4.75,2.97c-0.33,0.3-0.76,0.59-1.19,0.69
		c-2.09,0.48-4.24,0.75-6.29,1.35c-4.67,1.39-8.58,4-11.7,7.76c-2.39,2.88-3.88,6.22-5.12,9.7c-0.91,2.55-1.56,5.21-2.7,7.65
		c-1.14,2.43-2.7,4.68-4.17,6.95c-1.25,1.93-2.58,3.81-3,6.14c-0.05,0.29-0.19,0.57-0.33,0.84c-0.72,1.32-1.56,2.58-2.15,3.95
		c-0.95,2.21-1.84,4.46-2.57,6.75c-0.39,1.25-0.4,2.62-0.58,3.94c-0.45,3.34-0.12,6.67,0.22,9.98c0.36,3.59,1.05,7.15,1.56,10.73
		c0.33,2.32,0.75,4.64,0.86,6.98c0.15,3.16,0,6.33,0.05,9.49c0.03,1.69-0.64,2.99-1.76,4.21c-1.56,1.7-3.45,2.97-5.28,4.32
		c-2.96,2.19-6.17,3.85-9.82,4.53c-2.38,0.44-4.78,0.81-7.17,1.22c-0.16,0.03-0.3,0.17-0.45,0.26c0.14,0.09,0.28,0.25,0.44,0.26
		c0.45,0.05,0.93-0.06,1.35,0.07c1.56,0.47,3.16,0.42,4.74,0.4c2.13-0.04,4.22-0.44,6.15-1.31c4.51-2.03,8.54-4.79,11.99-8.36
		c1.44-1.49,2.2-3.25,2.18-5.35c-0.02-2.8,0.04-5.6-0.02-8.4c-0.03-1.72-0.14-3.44-0.35-5.14c-0.7-5.63-1.83-11.2-2.31-16.88
		c-0.27-3.27-0.04-6.49,0.21-9.73c0.01-0.19,0.07-0.38,0.14-0.56c1.12-2.91,2.14-5.86,3.39-8.7c1.1-2.5,2.44-4.88,3.69-7.31
		c0.15-0.29,0.4-0.52,0.6-0.78c0.05,0.02,0.11,0.04,0.16,0.06c-0.02,0.26-0.02,0.53-0.05,0.79c-0.4,2.7-0.93,5.39-1.18,8.1
		c-0.33,3.6-0.49,7.22-0.65,10.83c-0.47,10.42,0.03,20.78,1.85,31.07c0.7,3.94,1.55,7.84,2.91,11.61c0.7,1.95,1.53,3.84,2.92,5.42
		c3.23,3.68,7.18,6.15,12.04,6.93c1.18,0.19,1.65,0.62,1.91,1.73c0.65,2.76,1.48,5.48,2.14,8.24c0.4,1.67,0.58,3.39,0.92,5.08
		c0.88,4.49,1.14,9,0.57,13.54c-0.34,2.71-1.34,5.19-2.84,7.47c-0.78,1.19-1.51,2.4-2.23,3.62c-0.11,0.19-0.11,0.64,0.02,0.73
		c0.18,0.13,0.56,0.15,0.79,0.05c1.35-0.59,2.37-1.51,3.24-2.74c2.2-3.15,3.39-6.65,3.62-10.41c0.17-2.89,0.1-5.82-0.23-8.69
		c-0.6-5.19-1.54-10.34-3.14-15.34c-0.27-0.85-0.54-1.71-0.85-2.69c0.35,0,0.62-0.01,0.89,0c5.97,0.17,11.87-0.36,17.66-1.84
		c4.38-1.11,8.52-2.81,12.3-5.33c0.43-0.28,0.67-0.26,0.99,0.18c0.81,1.13,1.72,2.2,2.53,3.34c1.25,1.74,2.82,2.97,4.87,3.75
		c1.84,0.7,3.58,1.21,5.61,0.96c3.51-0.44,7.01-0.83,10.21-2.52c0.11-0.06,0.26-0.05,0.59-0.1c-1.06,1.8-1.93,3.51-3.02,5.07
		c-2.16,3.1-4.72,5.85-7.61,8.31c-4.57,3.9-9.09,7.84-13.97,11.35c-1.17,0.84-2.28,1.77-3.72,2.14c-0.08,0.02-0.2,0.04-0.23,0.1
		c-0.1,0.17-0.28,0.41-0.23,0.54c0.08,0.16,0.33,0.28,0.53,0.34c0.12,0.04,0.29-0.06,0.43-0.1c2.92-0.8,5.43-2.41,7.84-4.14
		c3.23-2.32,6.32-4.84,9.45-7.3c3.04-2.38,5.82-5.03,8.29-8.01c2.02-2.44,3.47-5.23,4.97-7.99c0.94-1.74,1.5-3.74,3.25-4.95
		c0.03-0.02,0.05-0.07,0.08-0.1c1.62-1.99,2.63-4.25,3.2-6.75C133.74,126.81,133.92,123.63,133.33,120.43"/>
	<path class="st0" d="M86.74,78.08c0.12-0.09,0.23-0.21,0.37-0.26c2.02-0.85,4.04-1.72,6.3-1.71c0.25,0,0.51-0.08,0.76-0.14
		c1.4-0.34,2.57,0.1,3.48,1.14c0.67,0.76,1.25,1.61,1.87,2.41c-0.07,0.08-0.15,0.17-0.22,0.25c-1.15-1.05-2.59-1.35-4.02-1.6
		c-1.84-0.32-3.7-0.58-5.58-0.42c-0.75,0.07-1.48,0.23-2.23,0.35C87.24,78.15,87.02,78.18,86.74,78.08 M91.04,79.89
		c0.25,0.49,0.03,1.11-0.55,1.49c-0.45,0.29-0.59,0.67-0.48,1.16c0.19,0.82,0.63,1.48,1.4,1.82c1.7,0.75,3.71,0.14,4.74-1.39
		c0.73-1.08,0.88-1.11,1.97-0.35c0.19,0.13,0.35,0.32,0.51,0.49c0.85,0.93,1.14,2.27,2.2,3.03c0.31,0.22,0.66,0.52,1,0.53
		c0.49,0.02,0.66-0.44,0.76-0.89c0.19-0.84,0.22-1.64-0.17-2.45c-0.2-0.43-0.24-0.95-0.33-1.44c-0.15-0.76-0.2-1.55-0.46-2.27
		c-0.58-1.62-1.58-3.03-2.84-4.19c-0.97-0.9-2.07-1.72-3.56-1.64c-1.49,0.2-3,0.29-4.45,0.63c-1.95,0.46-3.83,1.17-5.45,2.38
		c-1.06,0.79-2.03,1.71-3.05,2.57c-0.24,0.21-0.54,0.36-0.77,0.58c-0.5,0.5-0.31,1.21,0.38,1.23c0.93,0.03,2,0.13,2.78-0.26
		c1.59-0.81,3.3-1.06,4.97-1.48C90.19,79.3,90.73,79.28,91.04,79.89"/>
	<path class="st0" d="M70.49,118.7c-1.34,0.6-2.71,1.17-4.09,1.67c-1.47,0.53-2.92,0.31-4.32-0.32c-1.53-0.69-2.45-1.91-3.03-3.43
		c-0.07-0.18-0.08-0.5,0.03-0.61c0.42-0.42,0.38-0.86,0.07-1.35c0.06-0.04,0.13-0.08,0.19-0.12c0.81,0.52,1.59,1.08,2.42,1.55
		c0.97,0.55,1.92,1.25,2.97,1.47c1.66,0.35,3.41,0.85,5.07-0.16c0.39-0.24,0.86-0.35,1.14,0.12
		C71.25,118.04,70.92,118.51,70.49,118.7 M63.8,114.43c0.57,0.8,1.17,0.94,2.04,0.7c1.08-0.29,2.04,0.1,2.92,0.69
		c-2.94,0.2-5.58-0.51-7.81-2.71C62.15,113.16,63.16,113.53,63.8,114.43 M73.29,115.5c-0.35,0.02-0.74,0-1.06-0.13
		c-0.7-0.28-1.34-0.7-2.04-0.97c-1.1-0.42-2.2-0.94-3.34-1.08c-0.94-0.12-1.87,0.02-2.53-0.84c-0.06-0.08-0.19-0.1-0.28-0.16
		c-2.21-1.31-4.64-1.01-7.04-0.99c-0.32,0-0.65-0.09-0.95-0.2c-0.21-0.08-0.39-0.27-0.58-0.4c-0.33-0.23-0.71-0.26-0.9,0.1
		c-0.12,0.22-0.1,0.68,0.06,0.84c0.43,0.44,0.91,0.91,1.46,1.12c0.78,0.3,1.39,0.54,1.2,1.56c-0.06,0.31,0.18,0.69,0.11,0.99
		c-0.27,1.1-0.05,2.11,0.36,3.13c0.38,0.97,1.3,1.47,1.87,2.26c1.06,1.45,2.55,1.93,4.25,2.06c1.96,0.14,3.73-0.47,5.47-1.26
		c0.51-0.23,1.02-0.4,1.19-1.05c0.06-0.24,0.36-0.42,0.56-0.61c0.71-0.68,1.4-1.39,2.15-2.03c0.42-0.37,0.94-0.62,1.41-0.94
		c0.22-0.15,0.45-0.31,0.65-0.48c0.26-0.23,0.49-0.48,0.75-0.71c0.11-0.1,0.25-0.18,0.38-0.27c-0.03-0.05-0.05-0.09-0.08-0.14
		C75.33,115.36,74.31,115.45,73.29,115.5"/>
	<path class="st0" d="M56.62,69.08c0.59-0.31,1.17-0.64,1.78-0.91c0.93-0.41,1.89-0.65,2.94-0.57c1.47,0.11,3.22,1.52,3.64,3.2
		c-2.71-1.21-5.48-1.48-8.29-1.52C56.67,69.21,56.65,69.14,56.62,69.08 M59.38,71.86c0.17,0.31,0.06,0.8,0,1.2
		c-0.02,0.17-0.23,0.3-0.34,0.46c-0.08,0.12-0.24,0.3-0.2,0.38c0.31,0.65,0.49,1.58,1.01,1.84c1,0.51,2.18,0.75,3.31,0.87
		c0.97,0.11,1.57-0.64,1.6-1.62c0.01-0.32,0-0.63,0-0.95c0.08-0.04,0.15-0.08,0.23-0.12c0.24,0.36,0.5,0.7,0.7,1.07
		c0.15,0.28,0.21,0.61,0.35,0.9c0.21,0.43,0.55,0.66,1.04,0.59c0.5-0.08,0.67-0.43,0.66-0.89c-0.03-0.73-0.02-1.46-0.13-2.17
		c-0.16-1-0.42-1.97-0.63-2.96c-0.26-1.24-0.83-2.26-1.78-3.14c-1.89-1.75-4.01-2.3-6.4-1.27c-1.63,0.7-3.19,1.56-4.77,2.36
		c-0.29,0.14-0.54,0.35-0.83,0.48c-0.27,0.13-0.57,0.19-0.85,0.3c-0.35,0.14-0.87,0.23-1,0.5c-0.16,0.31-0.1,0.87,0.09,1.18
		c0.44,0.7,1.15,1.14,2.01,1.09c1.65-0.1,3.29-0.31,4.93-0.42C58.71,71.53,59.26,71.64,59.38,71.86"/>
	<path class="st0" d="M98.14,107.74c0.54-0.48,1.12-0.93,1.69-1.39c2.38-1.91,4.76-3.83,7.14-5.73c1.21-0.97,1.51-2.4,2.06-3.81
		c-0.13-0.22-0.23-0.55-0.42-0.63c-0.19-0.08-0.56,0.03-0.72,0.18c-0.43,0.43-0.79,0.95-1.19,1.41c-0.39,0.45-0.77,0.92-1.21,1.31
		c-0.45,0.4-0.97,0.71-1.46,1.06c-2.19,1.63-4.42,3.21-6.55,4.91c-1.17,0.93-2.34,1.96-3.18,3.18c-1.31,1.92-2.61,3.85-3.59,6.02
		c-0.82,1.82-1.26,3.68-1.62,5.59c-0.02,0.1,0.03,0.28,0.11,0.33c0.07,0.04,0.26,0,0.33-0.07c0.32-0.31,0.68-0.61,0.92-0.99
		c0.97-1.57,1.91-3.16,2.85-4.75C94.69,111.99,96.05,109.59,98.14,107.74"/>
</g>
</svg>
